<svg width="57" height="57" viewBox="0 0 57 57" fill="none" xmlns="http://www.w3.org/2000/svg">
<path d="M0 33.513C10.7936 29.7388 27.164 33.9062 34 36.4617L16.7302 40L0 33.513Z" fill="#FF421B"/>
<path d="M0 23.487C10.7936 27.2612 27.164 23.0938 34 20.5383L16.7302 17L0 23.487Z" fill="#FF421B"/>
<path d="M57 27.4375V29.0312L14 29.0313V27.4375C15.6 27.4375 19.3333 24.6042 21 23.1875C22.2 23.1875 28.1667 21.0625 31 20C35.4 20.85 54.5 24.7812 57 27.4375Z" fill="#F2FAFB"/>
<path d="M57 29.5625V27.9688L14 27.9688V29.5625C15.6 29.5625 19.3333 32.3958 21 33.8125C22.2 33.8125 28.1667 35.9375 31 37C35.4 36.15 54.5 32.2188 57 29.5625Z" fill="#F2FAFB"/>
<path d="M31 37L4 57C8.5 51.4681 8.5 41.8936 20 38.0638L31 37Z" fill="#F6FEFF"/>
<path d="M34 41.0426L31 37L24 42.3192L25.5 49.766L34 41.0426Z" fill="#FF421B"/>
<path d="M31 20L4 0C8.5 5.53192 8.5 15.1064 20 18.9362L31 20Z" fill="#F6FEFF"/>
<path d="M34 15.9574L31 20L24 14.6808L25.5 7.23404L34 15.9574Z" fill="#FF421B"/>
<path d="M34 32V25C38.6667 25.3333 48 26.5 48 28.5C48 30.9 38.6667 31.8333 34 32Z" fill="#280087"/>
<path d="M32 32V25C29.3333 25.5 24 26.9 24 28.5C24 30.5 29.3333 31.6667 32 32Z" fill="#280087"/>
</svg>
